
<svg xmlns="http://www.w3.org/2000/svg" xml:space="preserve" width="210mm" height="297mm" version="1.1" style="shape-rendering:geometricPrecision; text-rendering:geometricPrecision; image-rendering:optimizeQuality; fill-rule:evenodd; clip-rule:evenodd"
viewBox="0 0 21000 29700"
 xmlns:xlink="http://www.w3.org/1999/xlink"
 xmlns:xodm="http://www.corel.com/coreldraw/odm/2003">
 <defs>
  <style type="text/css">
    .fil0 {fill:#393185;fill-rule:nonzero}
  </style>
 </defs>
 <g id="Capa_x0020_1">
  <metadata id="CorelCorpID_0Corel-Layer"/>
  <path class="fil0" d="M5977.03 4834.39c4.91,38.03 7.36,81.58 7.36,129.42 0,9.82 0,31.9 0,67.48 0,34.96 -3.68,70.54 -10.43,104.89 -25.15,114.09 -87.1,214.69 -185.24,301.79 -98.15,87.72 -217.76,148.45 -357.62,181.57 -28.83,7.36 -58.88,11.04 -90.17,11.04 -61.95,0 -130.65,-14.11 -204.87,-41.71 -82.2,-28.22 -165.01,-82.2 -247.82,-161.33l-71.76 -69.92 -11.04 64.4c-7.98,42.94 -22.09,83.43 -41.1,120.23 -11.04,23.92 -20.24,40.48 -28.83,49.69 -8.59,8.58 -20.24,17.17 -36.19,23.92 -23.92,12.27 -53.98,19.01 -91.4,20.24l-21.47 0c-30.05,0 -58.88,-3.68 -86.49,-11.04 -30.05,-7.36 -45.39,-15.34 -46.62,-25.15 -1.22,-3.68 -3.06,-6.75 -6.13,-9.2 -3.07,-1.84 -5.52,-3.07 -7.97,-3.07 -6.14,0 -9.2,-3.68 -9.2,-11.04 0,-1.23 0,-4.29 0,-9.81 0,-5.52 4.29,-20.25 12.26,-44.17 22.09,-61.95 36.81,-116.54 44.17,-163.78 7.97,-46.61 13.49,-115.32 17.17,-206.1 1.23,-53.98 2.46,-122.07 4.3,-203.65 1.84,-80.97 3.68,-157.64 4.9,-230.02 0,-101.83 -1.22,-177.89 -3.06,-228.19 -1.84,-50.3 -6.14,-102.44 -13.5,-155.8 -14.11,-123.91 -28.21,-226.35 -41.1,-308.54 -13.49,-82.2 -28.21,-161.33 -44.77,-238 -4.91,-22.7 -9.2,-41.71 -12.89,-56.43 -3.68,-15.34 -6.13,-26.38 -7.97,-34.35 -1.84,-7.98 -3.68,-13.5 -5.52,-15.95 -1.84,-3.07 -3.68,-4.91 -5.52,-5.52 -1.23,-0.62 -3.68,-0.62 -6.13,0.61 -3.68,1.23 -8.59,1.84 -15.95,1.84 -7.36,0 -18.4,-0.61 -34.35,-2.45 -15.34,-1.84 -34.97,-5.52 -58.28,-11.04 -23.31,-5.52 -42.93,-11.66 -58.27,-19.02 -47.84,-23.92 -85.26,-53.36 -111.64,-89.56 -16.56,-22.69 -25.15,-41.71 -25.15,-57.66 0,-9.2 3.07,-17.78 9.2,-25.14 4.91,-3.68 13.5,-7.37 25.77,-12.27 12.88,-4.91 27.6,-9.2 44.16,-12.88 17.79,-3.68 38.65,-9.2 63.18,-17.18 23.92,-7.36 45.39,-15.33 65.02,-22.08 20.24,-7.36 31.9,-12.88 35.58,-16.56l0 -1.84c0,-4.3 -1.84,-14.73 -4.91,-31.29 -3.07,-15.95 -7.97,-36.8 -15.33,-61.95 -17.79,-63.18 -29.45,-110.41 -33.74,-139.86 -2.45,-15.94 -3.68,-28.83 -3.68,-39.87 0,-10.42 1.23,-19.01 3.68,-25.15 2.45,-7.36 5.52,-13.49 9.81,-19.01 4.3,-4.91 7.36,-8.59 9.82,-9.82 3.68,-1.22 6.13,-3.06 7.36,-5.52 1.23,-0.61 1.84,-1.84 1.84,-3.06 0,-1.23 -0.61,-2.46 -1.84,-3.68l0 -3.68c0,-1.23 0,-2.46 0,-3.07 0,0 0.61,-0.61 1.84,-0.61 1.84,0 4.29,1.22 6.75,4.29 2.45,3.07 3.68,7.36 3.68,11.65l3.68 16.57 1.84 -16.57 0 -1.84c0,-9.2 6.13,-14.1 17.79,-14.1 4.9,0 9.81,-0.62 14.72,-2.46 4.29,-1.84 7.97,-4.29 10.43,-6.75 3.68,-3.06 6.74,-4.9 9.2,-4.9 2.45,0 4.29,1.22 5.52,3.06 3.68,3.68 7.36,6.14 12.27,7.37l7.36 0c2.45,0 4.9,0 7.97,-0.62 3.07,-0.61 4.29,-2.45 4.29,-4.91 0,-2.45 0.62,-3.68 1.84,-3.68 2.46,0 5.53,1.84 9.21,5.52 2.45,2.46 6.13,3.69 11.04,3.69l14.1 0c2.46,-1.23 4.91,-1.85 7.37,-1.85 2.45,0 6.13,0.62 10.42,1.85 4.91,1.22 10.43,3.68 16.57,7.36 5.52,2.45 11.65,4.29 16.56,5.52 5.52,1.22 9.2,1.84 10.42,1.84 1.23,-1.23 2.46,-1.84 3.07,-1.84 1.23,0 2.46,0.61 3.68,1.84 1.23,1.22 2.46,3.06 3.68,6.74 1.23,3.68 3.68,6.75 6.14,7.98 3.06,1.84 6.13,3.07 8.58,3.07 2.46,0 5.52,1.22 10.43,4.29 4.91,3.07 9.82,6.75 14.72,11.65 4.91,3.68 9.82,6.75 15.34,9.82 4.91,3.07 9.2,4.91 11.65,4.91 2.46,0 5.52,1.84 10.43,4.9 4.91,3.68 9.82,8.59 14.72,14.72 5.52,9.82 9.2,14.11 10.43,14.11 1.23,0 1.84,-0.61 1.84,-1.84 0,-1.84 -0.61,-4.91 -1.84,-8.59 -1.23,-4.9 -1.84,-8.58 -1.84,-11.04l0 -5.52c1.23,0 6.13,3.68 13.5,11.04 7.97,7.36 17.17,15.95 28.21,26.99 10.43,9.82 20.24,17.79 28.83,25.15 7.98,7.36 12.88,11.04 14.11,11.04l28.83 -12.88c19.01,-9.81 42.32,-20.85 69.93,-34.35 26.37,-12.88 53.36,-25.76 81.58,-37.42 28.22,-12.26 50.3,-20.24 65.63,-25.14 15.95,-4.91 33.74,-10.43 53.37,-16.57 19.63,-5.52 37.42,-10.42 52.75,-14.1 39.87,-11.05 79.13,-15.95 119,-15.95 69.31,0 139.24,15.95 209.78,48.46 88.95,45.39 166.23,115.31 231.87,210.39 66.25,94.47 108.57,196.9 127.59,307.32 4.9,28.21 7.36,61.34 7.36,98.75 0,14.11 -0.62,40.49 -2.46,77.9 -1.84,38.04 -7.36,73.61 -15.33,106.74 -9.82,34.96 -26.38,76.06 -50.3,124.52 -23.92,47.84 -47.85,87.1 -70.54,118.38l-37.42 50.3 23.31 -5.52c14.11,-2.45 28.22,-3.68 41.1,-3.68 100.6,0 180.95,82.81 241.06,248.43 11.66,31.89 26.38,77.29 42.94,134.33 17.18,57.66 31.9,114.09 46.01,169.3 13.49,55.21 22.69,95.08 25.76,120.23zm-1602.81 -1750.03c1.22,-3.68 1.84,-7.36 1.84,-11.04 0,-2.46 -0.62,-5.53 -1.84,-9.21l-1.84 -1.84c-1.23,0 -1.84,3.68 -1.84,11.05 0,8.58 0.61,12.26 1.84,12.26 1.22,0 1.84,-0.61 1.84,-1.22zm413.43 499.3c4.9,26.38 11.65,74.23 20.85,143.54 8.59,69.93 16.56,138.63 23.93,206.72 7.36,68.7 11.04,114.09 11.04,136.78 0,2.46 7.36,3.68 21.47,3.68l15.94 0c11.05,0 25.15,-1.22 42.33,-3.06 17.17,-1.84 36.19,-3.68 56.43,-6.75 20.86,-3.07 36.81,-6.75 49.07,-9.81 113.48,-41.1 211.01,-109.8 292.6,-206.72 81.58,-97.53 128.2,-201.2 140.46,-310.99 1.23,-14.73 1.84,-28.83 1.84,-43.56 0,-120.84 -62.56,-183.4 -187.08,-188.31 -12.27,-1.23 -23.31,-1.84 -34.35,-1.84 -9.2,0 -20.25,0.61 -31.29,2.45 -11.65,1.84 -26.99,6.75 -46,13.5 -25.15,8.59 -58.89,22.69 -101.21,42.32 -42.94,19.63 -85.27,41.1 -128.82,65.02 -42.93,23.31 -80.35,44.17 -111.02,63.8 -31.29,19.01 -47.23,30.67 -47.23,35.57 0,1.23 1.22,7.37 3.68,19.02 2.45,11.04 4.9,23.92 7.36,38.64zm943.41 1316.97c8.58,-35.57 12.88,-77.9 12.88,-125.74 0,-92.01 -16.56,-207.95 -49.07,-346.57l-6.75 -28.83 -75.45 3.68c-21.47,1.22 -46,3.06 -72.38,6.13 -26.38,3.07 -48.46,6.13 -66.25,9.81 -136.79,23.93 -285.84,36.2 -447.17,36.2 -34.96,0 -63.79,0 -86.49,0.61 -22.69,0.61 -39.87,1.23 -50.91,1.84 -11.65,0.61 -19.63,1.84 -24.53,3.68 -4.91,1.84 -7.37,3.68 -7.37,6.13 0,6.14 -0.61,42.94 -1.84,109.8 -1.22,66.86 -3.06,149.06 -4.9,245.98 -1.23,97.53 -3.07,180.95 -5.52,252.1 -2.46,70.54 -4.3,110.41 -5.52,120.23l-5.52 28.83 55.82 0c14.1,0 36.19,1.84 66.24,5.52 30.06,3.07 59.5,7.36 88.33,12.27 50.3,9.81 98.15,14.11 143.54,14.11 51.52,0 99.37,-5.52 144.15,-17.79l0 -1.84c68.08,-15.34 139.85,-49.69 215.3,-102.44 52.75,-34.35 93.24,-69.31 120.23,-104.89 27.6,-35.58 49.07,-78.52 63.18,-128.82z"/>
  <path id="_1" class="fil0" d="M6482.47 5698.67c0,-2.46 -1.23,-4.3 -3.07,-5.52 -1.22,-1.23 -4.29,-1.84 -7.97,-1.84 -2.45,0 -4.91,-0.62 -6.75,-2.46 -2.45,-1.84 -3.68,-3.68 -3.68,-6.13 0,-2.45 -0.61,-4.3 -1.84,-5.52 -1.22,-1.23 -2.45,-1.84 -3.68,-1.84 -1.22,0 -2.45,0.61 -3.68,1.84l-19.63 0c-6.13,-1.23 -9.2,-2.46 -9.2,-3.68 0,-1.23 3.07,-3.07 9.2,-5.52 2.46,-1.23 3.68,-2.46 3.68,-3.07 0,-1.23 -0.61,-2.45 -1.84,-3.68 -2.45,-3.68 -9.81,-7.97 -21.47,-12.88 -12.26,-3.68 -20.24,-7.36 -23.92,-10.43 -3.07,-3.68 -4.91,-6.75 -4.91,-9.2 0,-2.45 0.62,-4.29 1.84,-5.52 1.23,-2.45 1.84,-4.29 1.84,-5.52 0,-2.46 -0.61,-3.68 -1.84,-4.91 -1.22,-2.45 -3.06,-4.29 -5.52,-5.52 -2.45,0 -4.9,-0.61 -7.97,-1.23 -3.07,-0.61 -6.13,-0.61 -8.59,-0.61 -0.61,-1.23 -3.07,-1.84 -6.13,-1.84 -3.07,0 -5.52,-0.61 -7.98,-1.84 -1.22,0 -3.06,-1.23 -6.13,-4.29 -3.07,-3.07 -5.52,-7.36 -7.97,-11.66 -3.68,-6.13 -5.53,-11.04 -5.53,-14.72 0,-2.45 1.85,-4.91 5.53,-7.36 3.06,-1.84 4.9,-4.29 4.9,-6.75l0 -3.68c-2.45,-4.91 -4.9,-8.59 -8.58,-11.04 -3.69,-2.45 -6.75,-3.68 -9.21,-3.68 -2.45,0 -4.9,0.61 -7.36,1.84l-1.84 0c-6.74,0 -10.42,-14.11 -10.42,-42.94l0 -12.27c0,-6.13 -2.46,-9.2 -7.37,-9.2 -1.22,0 -3.06,0.62 -5.52,1.84l-3.68 0c-3.06,0 -5.52,-0.61 -6.74,-1.84 -1.23,-2.45 -1.84,-7.97 -1.84,-15.95 0,-6.13 0.61,-10.42 1.84,-12.88 1.22,-2.45 2.45,-3.68 3.68,-3.68l3.06 0 0 -3.68c-0.61,-3.68 -3.06,-8.59 -6.74,-15.95 -4.91,-7.36 -7.36,-14.1 -7.36,-21.46 0,-27.61 39.25,-50.3 117.15,-68.71l75.45 -19.62 -3.68 -87.72c0,-25.15 -1.22,-53.37 -3.06,-84.04 -1.84,-30.05 -3.07,-56.43 -4.3,-77.9 -3.68,-41.71 -7.97,-87.71 -12.88,-136.79 -4.29,-49.07 -8.59,-92.01 -12.27,-128.2 -3.68,-36.8 -6.13,-57.04 -7.36,-61.95 -1.23,-2.45 -6.13,-4.91 -14.11,-7.36 -8.58,-2.45 -18.4,-4.3 -28.83,-5.52 -22.69,-3.68 -43.55,-8.59 -63.18,-15.34 -19.01,-6.13 -30.67,-12.88 -35.57,-18.4 -1.23,-2.45 -3.68,-4.91 -7.36,-6.75 -3.69,-1.84 -7.98,-2.45 -12.27,-2.45 -3.68,0 -7.36,-0.61 -10.43,-1.84 -2.45,-1.23 -4.29,-2.45 -4.29,-3.68 0,-2.45 -1.84,-4.91 -6.14,-7.97 -4.29,-3.07 -9.81,-5.53 -17.17,-7.98 -14.11,-4.91 -30.06,-15.95 -47.85,-32.51 -17.17,-16.56 -28.83,-31.9 -34.96,-44.78 -1.23,-3.68 -3.68,-6.74 -6.75,-9.81 -3.68,-3.07 -7.97,-5.52 -12.88,-6.75 -3.68,-0.61 -6.75,-3.07 -9.82,-6.75 -3.06,-3.68 -4.29,-7.36 -4.29,-11.04 0,-4.9 -0.61,-8.59 -1.84,-10.43 -1.23,-2.45 -3.07,-3.68 -5.52,-3.68 -2.45,0 -4.29,-1.22 -5.52,-3.06 -1.23,-1.84 -1.84,-4.3 -1.84,-7.98 0,-2.45 -1.84,-6.13 -5.52,-11.65 -3.07,-5.52 -7.36,-11.04 -12.27,-17.18 -4.91,-4.9 -7.97,-9.2 -9.81,-13.49 -1.84,-4.3 -3.07,-7.36 -3.07,-9.82l0 -3.68c0,-2.45 -0.61,-4.9 -1.84,-8.58 -1.23,-3.68 -3.07,-6.75 -6.75,-9.21 -9.81,-8.58 -14.72,-17.78 -14.72,-28.82 0,-10.43 0,-17.79 0,-21.47 0,-16.57 3.07,-33.74 9.2,-50.3 7.36,-19.02 16.56,-32.51 28.83,-39.26 12.88,-6.13 55.82,-9.81 127.59,-11.04l8.59 0c30.05,0 57.65,-0.61 82.19,-1.23 24.54,-0.61 41.71,-0.61 50.91,-0.61l36.19 0 0 -28.83c0,-20.24 -19.63,-161.94 -59.5,-423.86 -11.65,-81.58 -20.85,-144.15 -27.6,-187.7 -6.75,-44.17 -11.04,-79.13 -13.49,-105.51 -2.46,-10.42 -5.52,-28.83 -9.2,-54.59 -3.69,-25.76 -7.98,-53.36 -12.27,-81.58 -4.91,-31.28 -9.2,-54.59 -12.88,-70.54 -3.68,-15.34 -7.98,-26.99 -12.27,-34.97 -4.91,-7.97 -11.04,-15.94 -18.4,-23.92 -20.25,-22.08 -35.58,-38.64 -45.4,-51.52 -10.42,-12.27 -17.17,-21.47 -20.85,-26.99 -3.68,-5.52 -5.52,-9.82 -5.52,-13.5 0,-2.45 -0.62,-4.29 -1.84,-5.52 -1.23,-1.23 -2.46,-1.84 -3.68,-1.84l-1.84 1.84 -3.07 0c-2.45,0 -5.52,-1.23 -9.2,-3.07 -3.68,-4.9 -6.75,-10.42 -9.2,-15.33 -2.46,-5.52 -3.68,-9.82 -3.68,-13.5l0 -5.52c1.22,-1.22 1.84,-2.45 1.84,-3.68 0,-2.45 -0.62,-4.29 -1.84,-5.52 0,-3.68 -0.62,-6.74 -1.23,-8.58 -3.68,-6.14 -5.52,-12.89 -5.52,-20.25 0,-6.74 0,-12.88 0,-17.79l0 -14.1c1.23,-8.59 3.68,-14.73 6.75,-18.41 14.72,-15.33 42.94,-23.31 84.65,-23.31 17.79,0 38.64,1.23 61.34,3.69 85.87,9.81 181.56,18.4 286.45,26.98 104.9,8.59 184.64,12.89 239.84,12.89l39.88 0c104.89,0 210.39,-4.3 315.9,-12.89 119,-8.58 209.78,-19.01 273.57,-32.51 11.66,-2.45 20.86,-3.68 26.38,-3.68 6.13,0 11.65,2.46 16.56,7.37 3.68,2.45 7.36,4.9 10.43,7.36 3.68,2.45 7.36,3.68 11.04,3.68 2.45,0 5.52,0.61 9.2,1.84 3.07,1.22 7.36,3.06 12.27,4.9 3.68,1.23 7.97,3.07 12.88,5.52 4.29,2.46 8.59,4.3 12.27,5.52 3.68,1.23 7.36,4.91 11.65,11.05 4.3,5.52 7.98,12.26 11.66,19.62 3.68,7.37 7.97,13.5 12.88,19.63 4.91,6.14 9.2,9.82 14.11,11.04 3.68,1.23 6.74,3.07 9.81,4.91 3.07,2.46 4.91,4.91 4.91,7.36 0,2.46 0.61,3.68 1.84,3.68 1.23,0 1.84,-0.61 3.07,-1.84l1.84 -1.84c3.68,0 8.58,3.07 14.72,9.2 7.97,6.14 17.17,14.11 26.99,25.15 9.2,10.43 17.17,21.47 23.31,32.51 6.13,9.2 9.81,18.41 12.26,26.99 2.46,7.98 3.68,21.47 3.68,39.26 0,17.79 -1.22,46.01 -3.68,84.65 -2.45,59.5 -3.68,101.21 -3.68,124.52 0,23.31 0,39.87 0,49.69 0,20.24 0.62,38.03 1.84,53.97 2.46,22.7 5.52,46.62 9.2,71.77 3.69,20.24 6.14,36.81 7.98,50.3 1.84,12.88 3.07,22.7 3.07,28.83 0,4.91 -0.62,8.59 -1.84,12.27 -3.68,13.49 -11.66,24.54 -23.31,34.35 -12.27,9.81 -23.31,14.11 -34.35,14.11l-3.68 0c-4.91,0 -9.21,0.61 -12.27,1.84 -3.68,1.22 -5.52,3.06 -5.52,5.52 0,3.68 -3.07,5.52 -9.2,5.52l-5.52 0c-3.68,-1.23 -6.75,-1.84 -10.43,-1.84 -3.68,0 -6.14,0.61 -7.36,1.84 -1.23,2.45 -3.68,3.68 -7.36,3.68 -3.68,0 -6.14,0 -8.59,0l-7.36 0c-25.15,-2.45 -44.17,-4.91 -56.43,-7.36 -12.89,-2.45 -22.09,-5.52 -28.22,-9.2 -5.52,-3.07 -10.43,-7.98 -14.11,-14.11l-12.88 -12.27c-1.23,0 -1.84,0 -1.84,1.23 0,1.23 0.61,3.68 1.84,6.75 1.23,3.06 3.07,6.13 5.52,9.81 3.68,3.68 5.52,6.13 5.52,6.75l-3.68 0c-6.13,-0.62 -14.72,-4.91 -26.99,-12.27 -6.13,-3.68 -9.81,-6.75 -11.65,-9.81 -1.84,-3.07 -2.46,-5.53 -2.46,-7.98l0 -1.84 1.84 -1.84c0,-1.23 -0.61,-1.84 -1.84,-1.84l-3.68 1.84c-1.23,1.23 -3.07,1.84 -5.52,1.84 -7.36,0 -17.17,-4.29 -30.67,-12.88 -16.56,-11.66 -31.28,-26.38 -42.94,-42.94 -21.47,-33.74 -37.41,-76.06 -47.84,-126.97 -9.82,-50.91 -15.34,-96.92 -15.34,-139.24 0,-12.89 0.62,-25.77 1.84,-37.42l5.52 -57.66 -46.61 7.36c-53.98,7.36 -128.21,13.49 -222.06,19.63 -93.85,6.13 -169.91,9.2 -227.57,9.2 -25.76,0 -47.23,0 -62.56,0 -15.34,0 -27.61,0 -36.19,0.61 -7.98,0.62 -13.5,1.84 -15.34,3.07 -1.23,0.61 -2.45,2.45 -2.45,4.91l0 1.84c1.22,3.68 3.06,14.72 6.13,32.51 3.07,17.79 6.75,38.03 9.82,61.34 3.68,23.92 6.74,44.16 9.2,60.72 2.45,17.18 4.29,25.77 5.52,26.99 3.68,7.36 9.2,43.55 17.79,109.8 8.58,65.64 17.17,141.7 26.37,228.19 8.59,86.49 15.95,163.77 22.08,233.7l14.73 152.74 41.09 5.52c66.86,6.75 150.29,13.49 249.66,18.4 99.37,5.52 185.86,9.2 258.85,9.82 44.17,1.22 82.2,3.06 114.09,4.9 31.9,1.84 50.3,3.07 55.21,4.3 6.75,3.68 10.43,7.97 10.43,12.88 0,3.68 -3.68,7.97 -10.43,14.11 -14.72,11.04 -47.84,26.99 -99.37,48.46 -10.43,4.9 -26.38,11.65 -47.23,20.85 -20.86,8.59 -52.75,22.08 -94.47,39.26 -41.71,17.79 -99.98,41.71 -174.2,72.99 -33.74,12.88 -69.32,26.99 -107.96,42.33 -38.03,14.72 -69.93,26.37 -95.08,34.96l-84.65 28.83 1.84 134.95 0 33.74c0,142.92 -13.49,282.16 -41.09,418.95l-3.68 21.47 42.93 -5.52c13.5,-1.23 33.74,-3.68 61.34,-7.36 27.61,-3.07 55.82,-7.36 85.88,-12.27 185.86,-26.38 353.32,-39.26 503.6,-39.26l52.14 0c46.62,0.61 88.33,2.45 125.75,4.29 36.8,1.84 60.72,3.07 71.77,4.3 17.78,2.45 38.64,6.13 61.95,11.65 23.31,5.52 43.55,11.04 60.73,17.18 17.78,6.13 26.99,11.04 28.21,14.11 1.23,2.45 3.07,7.97 5.52,16.56 2.46,8.59 4.91,17.17 6.75,26.99 2.45,10.43 6.13,19.63 10.43,26.99 3.68,6.74 7.36,11.04 9.81,12.26 3.07,2.46 5.52,5.53 6.75,9.21 1.23,3.68 1.84,7.36 1.23,10.42 -0.62,3.68 -3.07,5.52 -6.14,5.52 -2.45,0 -4.29,1.84 -5.52,4.91 -1.23,2.46 -1.84,6.14 -1.84,9.82 0,4.9 0.61,7.97 2.46,10.42 1.84,2.46 4.9,3.68 7.97,3.68 2.45,0 4.91,1.23 7.36,3.07 2.45,1.23 3.68,3.68 3.68,6.14 0,1.22 -1.23,2.45 -3.68,4.29 -2.45,1.84 -4.91,2.45 -7.36,2.45 -3.07,0 -5.52,0.62 -6.75,1.23 -1.22,0.61 -1.84,1.23 -1.84,2.45l0 1.84c0,1.23 -1.23,4.3 -3.07,7.98 -1.84,4.29 -3.68,9.2 -6.13,13.49 -2.45,6.14 -3.68,10.43 -4.29,12.88 -0.62,2.46 -1.23,4.3 -1.23,5.52l0 3.68c1.23,1.23 1.84,1.84 1.84,3.07 0,1.23 -0.61,2.46 -1.84,3.68 0,2.46 -1.23,4.91 -3.68,7.36 -1.84,3.68 -3.07,6.14 -3.07,7.36 0,2.46 1.23,3.68 3.07,3.68 1.23,0 2.45,0.62 3.68,1.84 1.23,1.23 1.84,1.84 1.84,3.07 0,1.23 -0.61,2.45 -1.84,3.68 -3.68,15.95 -6.75,26.99 -10.43,33.13 -3.68,6.74 -8.59,10.42 -14.72,10.42 -6.75,0 -10.43,2.46 -10.43,6.75l0 3.68c1.23,2.45 1.84,4.29 1.84,5.52 0,2.45 -2.45,4.3 -7.36,5.52 -6.13,0 -19.01,-2.45 -39.26,-7.36 -26.37,-6.13 -68.7,-9.2 -126.36,-9.2 -23.92,0 -51.52,0.61 -82.19,1.84 -101.83,2.45 -212.85,9.81 -332.46,21.47 -124.52,13.49 -230.03,27.6 -316.52,43.55 -86.49,15.34 -167.46,34.35 -244.13,57.66 -88.94,25.76 -145.99,39.26 -171.14,39.26 -9.2,0 -14.11,-1.84 -14.11,-5.52z"/>
  <path id="_2" class="fil0" d="M9895.43 5404.24c19.01,12.88 31.28,25.14 37.41,35.57 6.14,8.59 9.21,19.02 9.21,30.67 0,3.68 -0.62,7.98 -1.84,12.88 0,11.66 -1.23,20.86 -3.68,26.99 -2.46,5.52 -7.37,10.43 -14.11,14.11 -4.91,2.46 -8.59,4.91 -9.82,7.36 -1.84,2.46 -3.06,4.3 -3.06,5.52l0 1.23c0,1.23 -0.62,2.45 -2.46,3.68 -1.84,1.23 -6.13,2.45 -11.65,3.68 -4.91,1.23 -9.2,3.07 -12.88,5.52 -1.23,1.23 -1.84,3.07 -1.84,5.52l0 3.68 -1.84 1.23c-2.46,1.23 -5.52,1.84 -10.43,1.84 -3.68,0 -6.75,0.61 -9.2,1.84 -1.23,1.23 -1.84,2.45 -1.84,3.68l0 1.84c0,2.45 -3.07,5.52 -9.82,9.2 -6.75,3.68 -14.72,6.75 -25.15,9.82 -10.42,3.06 -20.24,5.52 -29.44,7.97 -6.13,1.23 -11.04,1.84 -14.72,1.84l-4.91 0c-4.91,-1.23 -8.59,-1.84 -11.04,-1.84 -3.68,0 -5.52,1.23 -5.52,3.68 0,1.23 -4.29,2.45 -13.5,3.68 -8.58,1.23 -20.24,2.45 -33.12,3.68l-11.04 0c-23.92,0 -47.85,-4.29 -71.77,-11.65 -23.92,-7.98 -52.75,-22.7 -85.87,-44.17 -47.24,-28.83 -84.65,-63.18 -112.87,-103.66 -27.6,-39.87 -58.89,-103.67 -92.01,-191.38 -20.86,-52.76 -47.23,-131.88 -79.13,-238 -32.51,-106.12 -59.5,-201.2 -80.97,-286.46 -1.22,-3.68 -2.45,-7.98 -3.68,-12.88 -6.13,-23.92 -11.04,-43.55 -15.33,-58.89 -4.3,-15.95 -7.36,-27.6 -9.82,-36.19 -2.45,-8.59 -4.29,-14.11 -6.13,-17.79 -1.84,-3.68 -3.68,-5.52 -4.91,-5.52 -1.23,-1.23 -2.45,-1.84 -3.07,-1.84 -1.22,0 -2.45,0.61 -3.68,1.84l0 1.84c-4.9,1.23 -14.72,4.3 -28.83,9.2 -14.72,4.3 -30.05,9.82 -46.61,15.95 -18.41,6.14 -36.19,11.66 -53.98,17.18 -18.41,5.52 -31.9,8.58 -41.71,9.81 -11.66,2.45 -20.25,4.91 -25.77,7.97 -5.52,3.07 -8.58,7.37 -9.81,13.5 -1.23,4.91 -4.3,17.17 -7.98,36.8 -4.29,19.63 -9.2,42.33 -13.49,67.48 -32.51,144.76 -80.36,291.36 -144.15,438.58 -26.38,58.89 -51.53,107.96 -76.06,147.21 -24.54,39.88 -55.21,77.29 -90.78,113.48 -46.62,50.3 -94.47,85.27 -142.31,104.9 -47.85,19.62 -107.35,29.44 -177.89,29.44 -21.47,0 -44.78,-1.23 -70.54,-3.07 -25.76,-2.45 -46.01,-5.52 -60.73,-9.2l0 1.84c-124.52,-30.06 -203.65,-80.35 -236.77,-150.9 -3.68,-12.26 -5.52,-28.21 -5.52,-48.45 0,-4.91 0,-15.95 0.61,-33.74 0.62,-17.18 4.3,-42.33 9.82,-76.06 3.68,-15.34 7.36,-30.67 10.43,-46.01 2.45,-14.72 4.9,-25.76 6.13,-33.12 2.45,-12.27 8.59,-28.22 17.79,-48.46 9.81,-20.24 19.01,-39.26 28.83,-55.82 9.81,-16.56 16.56,-25.15 21.47,-25.15l1.84 0c1.22,0 1.84,-0.61 2.45,-1.84 0.61,-1.23 1.23,-3.07 1.23,-5.52l0 -1.84c0,-4.29 3.68,-11.65 11.04,-21.47 6.75,-9.2 15.95,-18.4 26.38,-26.99 9.81,-6.75 17.17,-10.43 22.08,-10.43l1.84 0c1.84,1.23 4.91,1.84 8.59,2.46 3.68,0.61 6.13,1.22 7.36,1.22 2.45,0 4.29,3.07 5.52,10.43 1.22,7.36 1.84,15.95 1.84,25.15 0,11.04 1.84,25.15 6.13,43.55 4.29,17.79 9.82,36.19 17.18,55.21 6.13,17.17 11.04,32.51 15.33,46 3.68,13.5 6.14,22.7 6.14,26.38 0,3.07 1.22,8.59 3.68,14.72 2.45,6.75 4.9,12.88 6.74,19.02 3.68,6.13 6.75,12.26 8.59,19.01 1.84,6.75 2.45,11.66 2.45,15.34l0 62.56 34.35 -33.73c46.62,-43.55 95.08,-114.71 145.38,-214.08 14.11,-27.6 30.06,-58.27 47.85,-91.4 17.17,-33.73 31.89,-62.56 43.55,-86.49 22.08,-41.71 39.87,-79.74 55.2,-113.47 14.72,-33.13 22.09,-52.76 22.09,-58.89 0,-2.45 -4.3,-4.29 -13.5,-4.91 -8.59,-0.61 -19.63,-0.61 -33.12,-0.61l-12.27 0c-46.01,0 -78.52,-11.66 -98.76,-34.35 -6.13,-4.3 -11.65,-8.59 -16.56,-12.27 -3.68,-1.23 -6.13,-1.84 -6.75,-1.84l-5.52 0c-2.45,0 -4.91,-1.23 -7.36,-3.68 -2.45,-2.45 -4.91,-6.13 -7.36,-10.43 -2.45,-6.13 -7.36,-14.11 -15.33,-23.92 -7.37,-9.2 -15.95,-19.02 -23.93,-28.83 -8.58,-7.98 -15.95,-15.95 -21.47,-23.31 -3.68,-5.52 -5.52,-9.81 -5.52,-12.27l0 -1.84c0,-2.45 -1.22,-5.52 -3.06,-9.81 -1.23,-4.3 -4.3,-7.98 -7.98,-11.66 -4.91,-4.9 -9.81,-14.11 -15.95,-26.99 -6.13,-13.49 -11.65,-26.99 -15.94,-41.09 -4.91,-14.73 -7.37,-25.15 -7.37,-32.51 0,-3.69 -1.22,-6.75 -3.06,-9.82 -1.23,-3.07 -3.68,-5.52 -6.14,-6.75 -3.68,0 -5.52,-1.84 -5.52,-6.74 0,-6.14 3.07,-15.34 9.2,-26.99 3.68,-8.59 6.14,-15.95 7.36,-21.47 1.23,-3.68 1.84,-6.14 1.84,-7.36 0,-1.23 -0.61,-1.84 -1.84,-1.84 0,-1.23 1.23,-3.07 3.68,-6.14 2.46,-3.06 6.14,-7.36 12.27,-11.65 22.7,-22.08 127.59,-38.65 314.68,-50.3 36.8,-1.23 68.08,-3.68 93.23,-6.75 25.15,-3.07 39.26,-4.91 41.72,-6.13 1.22,-1.23 3.68,-9.2 7.97,-23.93 4.29,-15.33 8.59,-33.73 13.49,-55.2 4.91,-21.47 11.05,-47.85 18.41,-79.13 7.97,-30.67 15.33,-60.11 22.69,-87.72 7.36,-26.37 15.34,-58.27 24.54,-96.3 8.59,-38.03 16.56,-72.38 23.92,-103.05 1.23,-7.36 2.45,-14.11 3.68,-20.24 7.36,-30.67 12.27,-54.6 15.34,-69.93 3.06,-15.34 6.13,-29.44 9.2,-41.1 3.06,-12.27 6.74,-28.21 11.65,-48.46 1.23,-3.68 2.46,-7.97 3.07,-12.88 13.49,-56.43 25.76,-127.59 36.19,-214.08l7.36 -44.77 -34.35 28.83c-101.82,86.49 -199.97,129.42 -294.43,129.42l-11.04 0c-27.61,0 -47.85,-1.22 -61.34,-4.29 -12.89,-3.07 -30.06,-9.81 -51.53,-20.86 -31.28,-15.33 -57.05,-33.12 -77.29,-52.13 -20.85,-19.02 -30.67,-35.58 -30.67,-48.46 0,-2.46 -1.22,-4.91 -3.68,-7.98 -2.45,-3.06 -5.52,-5.52 -9.2,-6.74 -12.88,-5.53 -23.92,-30.67 -31.9,-75.45 -1.22,-7.98 -1.84,-14.72 -1.84,-19.63 0,-2.46 0,-5.52 0.62,-9.82 0.61,-4.29 4.29,-9.2 11.65,-15.33 3.68,-4.91 8.59,-7.98 15.34,-10.43 6.74,-2.45 15.95,-4.29 27.6,-5.52 12.27,-1.23 30.06,-2.45 53.98,-3.68 47.84,-2.45 88.33,-7.36 120.84,-15.33 31.9,-7.98 65.63,-20.25 100.6,-36.81 106.11,-49.07 189.54,-114.7 249.65,-195.67 10.43,-13.5 19.02,-23.31 25.15,-30.06 6.13,-6.13 11.65,-10.43 17.79,-11.65 6.13,-1.23 14.11,-1.84 23.31,-1.84 9.81,0 18.4,-0.62 25.15,-1.85 7.36,-1.22 11.65,-1.84 12.88,-3.06 1.23,-2.46 3.07,-3.68 5.52,-3.68 3.07,0 7.36,2.45 12.27,6.74 4.9,3.69 11.04,7.37 19.01,10.43 7.98,2.46 15.34,5.52 22.08,7.98 8.59,1.22 15.34,3.06 20.86,5.52 5.52,1.84 7.97,3.68 7.97,4.9 0,1.23 1.84,2.46 4.91,3.07 3.07,0.62 6.14,0.62 9.82,0.62l5.52 0c3.06,0 5.52,0.61 6.74,1.84 1.23,1.22 1.84,5.52 1.84,12.88 0,4.29 1.23,8.58 3.07,12.26 1.84,3.69 3.07,5.53 4.3,5.53 11.04,0 24.53,35.57 41.09,106.11 6.14,25.15 19.63,76.07 39.87,152.74 20.25,76.68 40.49,152.74 60.73,228.8 20.86,76.06 34.35,126.36 41.71,150.28 3.68,11.66 6.75,22.7 8.59,32.51 1.23,5.52 1.84,10.43 1.84,14.11l0 3.68c0,2.45 0.61,4.29 1.84,6.13 1.23,1.84 3.07,3.07 5.52,3.07 2.45,0 3.68,0.61 3.68,1.84 1.23,1.23 1.84,1.84 1.84,3.07l-1.84 1.84c-1.23,2.45 -1.84,5.52 -1.84,9.2 0,2.45 1.23,5.52 3.68,9.2 1.23,2.45 2.45,4.29 3.68,6.75 1.23,2.45 1.84,4.29 1.84,5.52 0,1.23 0.61,3.07 1.84,5.52 1.23,2.45 1.84,5.52 3.07,9.2 2.45,6.75 17.17,51.53 43.55,133.72 26.38,82.2 59.5,188.32 100.6,318.97l17.79 55.82 46.61 4.91c13.5,1.22 25.77,2.45 36.81,3.68 11.65,1.22 19.63,2.45 24.53,3.68 3.69,1.22 10.43,2.45 20.86,3.68 9.81,1.22 19.63,1.84 29.44,1.84l37.42 1.84 -31.9 5.52c-15.94,2.45 -23.92,4.29 -25.15,4.91 0,1.22 3.69,3.06 10.43,5.52 6.14,1.22 12.27,1.84 18.4,1.84 6.75,0 12.89,-0.62 17.79,-1.84 4.91,-1.23 8.59,-1.84 10.43,-1.84l1.84 0c0,1.22 -3.07,5.52 -10.43,12.88 -4.9,6.13 -14.72,13.49 -30.05,22.69 -14.72,8.59 -30.67,17.18 -48.46,25.15 -17.18,7.36 -31.9,12.88 -43.55,16.56 -13.5,3.68 -20.25,9.82 -20.25,18.41 0,6.74 10.43,41.71 30.67,104.27 20.25,61.96 43.56,129.43 69.93,203.04 26.38,72.99 49.07,131.88 66.86,177.89 47.85,115.93 95.08,215.91 141.7,298.72 46.62,83.42 85.87,136.79 117.16,159.49zm-1838.36 -364.98c1.22,0 1.84,-0.61 2.45,-2.45 0.61,-1.84 0.61,-4.3 0.61,-6.75 0,-1.23 -0.61,-2.45 -2.45,-4.29 -1.84,-1.84 -3.68,-2.46 -6.13,-2.46 -1.23,0 -2.46,0.62 -3.07,2.46 -0.61,1.84 0,3.06 1.23,4.29 1.22,2.45 2.45,4.91 3.68,6.75 1.22,1.84 2.45,2.45 3.68,2.45zm1032.96 -729.33c0,-1.23 -0.61,-8.59 -2.45,-20.86 -1.84,-12.88 -4.91,-27.6 -7.97,-44.16 -7.37,-39.26 -14.73,-84.04 -22.09,-133.11 -6.74,-49.07 -12.26,-88.33 -15.95,-118.38 -1.22,-12.27 -3.06,-26.99 -6.13,-44.78 -3.07,-18.4 -5.52,-35.58 -7.97,-52.14l-9.2 -55.82 -5.53 75.45c-6.13,93.23 -11.65,177.27 -17.78,251.49 -6.14,74.22 -10.43,117.16 -12.89,127.59l0 5.52c0,2.45 0.62,4.29 1.23,6.13 0.62,1.84 4.91,3.07 12.27,3.68 7.97,0.62 20.86,0.62 38.64,0.62l39.87 0 15.95 -1.23z"/>
  <path id="_3" class="fil0" d="M10757.87 5603.59c0,-7.36 -3.68,-12.27 -11.65,-14.11 -7.98,-2.45 -14.73,-3.68 -20.86,-3.68 -3.68,0 -6.75,0.62 -10.43,1.84l-12.88 0c-3.68,0 -5.52,-0.61 -6.75,-1.84 -1.22,-3.68 -3.06,-5.52 -5.52,-5.52 -3.68,0 -7.97,1.84 -12.88,5.52 -4.91,3.07 -9.81,4.91 -15.95,4.91 -4.9,0 -11.04,-1.84 -17.79,-4.91 -6.13,-2.45 -11.65,-4.29 -16.56,-4.91 -4.9,-0.61 -7.97,0 -10.43,1.23l-1.84 0c-2.45,0 -6.13,-1.23 -11.04,-3.68 -4.9,-3.68 -10.42,-7.97 -17.79,-12.88 -8.58,-7.97 -13.49,-12.27 -14.72,-12.27l1.84 3.68c3.68,4.91 5.52,7.36 5.52,8.59l0 1.84c-1.22,0 -7.36,-1.84 -17.78,-5.52 -25.15,-9.2 -44.17,-30.06 -57.66,-62.57 -4.91,-8.59 -7.36,-23.92 -7.98,-46 -0.61,-22.09 -1.23,-44.78 -1.23,-68.7l0 -90.17c1.23,-26.38 1.85,-52.14 1.85,-77.29 0,-25.15 -0.62,-49.69 -1.85,-73.61 0,-47.84 -1.22,-84.04 -3.06,-107.96 -1.23,-22.69 -3.68,-55.2 -6.75,-96.92 -3.07,-41.71 -4.91,-84.03 -6.13,-125.74 -14.11,-245.98 -50.3,-583.96 -107.96,-1015.18 -3.68,-22.08 -6.14,-42.94 -8.59,-63.18 -2.45,-20.24 -4.29,-34.96 -5.52,-42.94 -1.23,-9.81 -3.68,-26.99 -6.13,-52.14 -3.07,-25.15 -6.75,-52.14 -10.43,-80.97l-14.11 -102.43 -41.1 3.68c-36.19,3.68 -74.22,7.97 -115.32,12.27 -40.48,4.9 -68.7,8.58 -84.65,11.04 -7.97,1.22 -23.92,1.84 -46.61,2.45 -22.7,0.61 -47.85,1.23 -75.45,1.23 -31.29,0 -53.98,-0.62 -69.32,-1.23 -14.72,-0.61 -26.99,-2.45 -37.41,-5.52 -10.43,-2.45 -22.09,-7.97 -34.97,-14.72 -15.95,-7.36 -27.6,-14.11 -34.96,-20.24 -7.98,-5.52 -15.95,-15.34 -23.31,-27.61 -7.98,-12.88 -18.4,-31.89 -31.9,-58.27 -3.68,-6.13 -5.52,-11.65 -6.13,-16.56 -0.62,-4.3 -0.62,-7.98 -0.62,-10.43l0 -5.52c1.23,-1.23 1.84,-2.45 1.84,-3.68 0,-1.23 -0.61,-2.45 -1.84,-3.68 0,-1.23 -1.22,-1.84 -3.68,-1.84 -4.9,0 -9.81,-6.14 -15.33,-18.4 -5.52,-12.88 -9.2,-23.93 -11.66,-34.35 -2.45,-10.43 -3.68,-17.79 -3.68,-22.7 0,-6.75 1.23,-12.27 3.68,-15.95 1.23,-4.91 1.84,-9.2 2.46,-12.88 0.61,-3.07 1.23,-5.52 1.23,-6.75 0,-1.22 -0.62,-1.84 -1.85,-1.84l-1.84 1.84c-1.22,1.23 -1.84,3.68 -1.84,6.75 0,1.23 -0.61,1.84 -1.84,1.84 -1.22,0 -3.06,-5.52 -5.52,-17.79 -2.45,-7.36 -3.68,-12.88 -3.68,-17.79 0,-6.13 0.62,-9.2 1.84,-9.2 1.23,-1.22 2.46,-4.9 3.68,-10.43 1.23,-6.13 1.84,-13.49 1.84,-22.08 0,-23.92 4.91,-48.46 15.34,-73.61 10.43,-25.15 21.47,-40.48 33.12,-46.61 11.04,-2.46 57.66,-4.3 141.08,-6.14 83.43,-1.84 180.34,-3.68 290.14,-4.29 110.41,-1.23 212.24,-1.84 305.48,-1.84 92.62,0 152.73,1.22 181.56,3.06 51.53,4.91 99.99,9.82 145.38,13.5 46,4.29 74.22,7.36 84.65,8.59 6.13,1.22 22.69,3.06 50.3,6.13 27.6,3.07 59.5,6.14 95.07,9.82 34.97,2.45 65.64,4.9 92.63,7.97 26.99,3.07 43.55,4.91 49.68,6.13 33.74,4.91 82.81,9.2 148.44,12.89 65.03,3.68 121.46,5.52 169.3,5.52 30.06,-1.23 54.6,-1.84 74.22,-1.23 19.02,0.61 28.22,1.84 28.22,3.07 -1.23,1.22 -1.23,2.45 -1.23,3.68 0,0.61 0.62,1.22 3.07,1.22 2.45,0 4.29,1.84 4.91,5.52 0.61,3.68 0,7.98 -1.23,12.89 -1.23,6.74 -4.91,12.88 -10.43,17.78 -6.13,4.91 -16.56,9.82 -30.67,14.11 -11.04,2.46 -20.85,6.14 -30.05,10.43 -8.59,3.68 -14.11,7.36 -16.56,9.81 -2.46,1.23 -4.3,1.84 -5.53,1.84l-3.68 0c0,-1.22 -0.61,-1.84 -1.84,-1.84l-1.84 0c-1.22,0 -3.68,1.23 -7.36,3.68 -15.33,9.21 -118.38,41.72 -308.54,96.92 -30.05,9.2 -61.95,19.02 -94.46,28.83 -33.12,9.2 -59.5,17.18 -80.36,23.31 -19.01,5.52 -40.48,12.27 -63.79,19.63 -23.31,7.36 -42.94,12.88 -60.11,17.79 -2.46,1.23 -4.3,1.84 -5.52,1.84 -19.02,4.91 -31.9,9.2 -39.26,13.49 -7.36,4.3 -11.04,11.66 -11.04,22.7 0,9.2 2.45,25.76 7.36,48.46 1.23,2.45 1.84,4.9 1.84,7.36 15.33,63.18 26.99,228.8 34.35,495.63 4.91,139.24 7.36,235.54 7.97,290.13 0.62,54.6 0.62,95.08 0.62,121.46 0,53.98 -0.62,107.34 -1.84,160.09 -1.84,77.91 -6.75,182.8 -14.11,314.07 -2.46,41.09 -4.91,82.19 -7.36,123.29 -2.46,41.71 -4.91,72.99 -6.75,94.46 -1.23,21.47 -2.45,39.26 -3.07,53.98 -0.61,14.11 -0.61,22.08 -0.61,23.31l1.84 0c1.23,0 2.45,-0.61 3.07,-1.84 3.68,-2.45 7.36,-5.52 11.04,-9.2 6.13,-6.75 12.88,-14.11 19.63,-20.24 7.36,-6.75 14.11,-12.27 20.24,-17.18 5.52,-4.91 9.81,-7.97 12.27,-9.2l1.84 -1.84c1.22,0 1.84,0.61 1.84,1.84l-1.84 3.68c-6.14,6.14 -9.2,9.82 -9.2,11.04l1.84 0 11.04 -9.2c4.9,-3.68 8.59,-6.13 11.65,-7.97 3.07,-1.84 4.91,-3.07 6.14,-3.07 1.22,0 1.84,0.61 1.84,1.84l1.84 0 1.84 -1.84c0,-1.84 -0.62,-4.91 -1.84,-8.59l0 -7.36c0,-3.68 1.22,-5.52 3.68,-5.52 1.22,0 2.45,0.61 3.68,1.84 3.68,2.46 6.74,4.3 10.43,4.91 3.68,0.61 6.13,0.61 7.36,0.61l5.52 0c0,-1.22 -0.62,-2.45 -1.84,-3.68 -1.23,-3.68 -1.84,-6.75 -1.84,-9.2 0,-1.84 1.22,-4.29 3.68,-6.75 1.22,-1.22 3.06,-1.84 5.52,-1.84 3.06,0 6.74,1.84 10.43,5.52 4.9,3.07 7.97,4.91 9.2,4.91 0,-1.23 -2.46,-4.29 -7.36,-10.43 -4.91,-6.13 -8.59,-9.2 -10.43,-9.2 -2.46,0 -6.75,4.3 -12.88,12.88 -3.68,4.3 -6.14,7.36 -7.98,8.59 -1.84,1.23 -3.68,1.84 -4.91,1.84 -0.61,0 -1.22,-0.61 -1.22,-1.84 0,-3.68 1.84,-7.36 6.75,-12.27 4.9,-4.9 10.42,-9.2 16.56,-12.88 5.52,-3.68 11.04,-4.91 15.95,-4.91 8.58,0 14.72,2.46 19.01,8.59 4.29,6.14 6.13,11.04 6.13,14.72 0,2.46 -0.61,4.3 -1.84,6.75 -2.45,2.45 -4.29,6.14 -5.52,11.04 -1.22,4.91 -2.45,9.2 -3.68,12.27 0,4.91 -1.22,12.88 -4.29,24.54 -3.07,11.65 -6.75,23.31 -11.65,34.96 -14.11,44.17 -26.38,85.26 -36.81,123.29 -10.43,37.42 -22.69,85.27 -36.8,142.93 -16.56,69.31 -31.29,120.22 -42.94,152.73 -12.27,31.9 -23.92,54.6 -36.19,66.25 -7.36,6.13 -12.27,9.2 -15.34,9.81 -3.06,0.62 -4.9,1.23 -6.13,1.23 -3.68,0 -7.97,-1.23 -12.88,-3.68 -5.52,-3.68 -9.82,-5.52 -12.27,-5.52 -2.45,0 -4.29,1.84 -5.52,5.52 -2.45,3.68 -4.91,5.52 -7.36,6.13 -2.45,0.62 -4.29,1.23 -6.75,1.23l-5.52 0c-3.68,-1.23 -5.52,-4.29 -5.52,-9.2z"/>
  <path id="_4" class="fil0" d="M13562.95 5402.4l0 5.52c0,33.12 -9.81,50.29 -30.67,50.29 -6.75,0 -10.43,0.62 -10.43,1.84 0,0.62 1.84,2.46 5.52,4.91 3.07,2.46 4.91,4.91 4.91,7.36 0,1.23 -2.45,3.07 -7.97,6.14 -5.52,3.06 -16.56,4.9 -33.13,4.9l-15.94 0 1.84 1.84c9.2,1.84 14.1,4.91 14.1,8.59 0,1.23 -1.84,3.07 -5.52,5.52 -3.68,2.46 -14.72,4.3 -33.73,5.52 -15.95,0 -23.31,0.62 -23.31,1.84l8.59 1.84c6.13,1.23 11.65,2.46 15.94,3.68 4.91,0.62 7.36,2.46 7.36,4.91 0,2.45 -4.29,6.13 -12.26,11.04 -8.59,4.91 -18.41,9.2 -28.83,13.5 -11.04,4.29 -18.41,6.13 -23.31,6.13 -3.68,0 -7.36,0.61 -11.66,1.84 -4.29,1.23 -7.36,3.07 -9.81,5.52 -6.14,4.91 -22.08,7.98 -47.23,10.43 -19.02,2.45 -39.87,3.68 -62.57,3.68l-23.31 0c-19.01,0 -36.19,-1.23 -50.3,-4.29 -14.72,-3.07 -30.05,-9.2 -46.62,-19.02 -105.5,-50.3 -209.17,-135.56 -310.99,-255.17 -82.81,-93.24 -209.78,-285.23 -380.92,-574.76l-77.29 -131.27 -66.86 -23.31c-64.41,-21.47 -125.13,-52.14 -181.57,-92.01l-31.89 -21.47 4.9 32.51c1.23,10.43 3.07,34.36 5.52,69.93 2.46,36.19 4.3,76.68 5.52,122.07 2.46,46 4.91,92.01 7.98,138.63 3.07,46.62 5.52,83.42 6.75,109.8 7.97,112.25 12.26,215.91 12.26,310.38 0,12.26 -0.61,47.23 -1.22,105.5 0,58.27 -6.75,109.19 -18.4,153.35 -13.5,41.1 -42.94,72.38 -88.33,93.85 -22.7,9.2 -52.14,15.34 -87.72,17.79 -15.95,1.23 -30.67,1.84 -45.39,1.84 -19.02,0 -36.19,-1.23 -52.14,-3.68 -46.62,-9.81 -89.56,-25.76 -128.82,-48.46 -23.3,-14.11 -44.16,-31.9 -63.18,-52.75 -19.01,-21.47 -30.67,-39.87 -34.35,-57.05 -1.22,-10.43 -2.45,-27.6 -4.29,-50.3 -1.84,-22.69 -3.07,-46 -4.29,-70.54 -1.23,-25.15 -1.84,-45.39 -1.84,-62.56l0 -14.11c0,-7.36 0.61,-11.04 1.84,-11.04 1.22,0 2.45,-0.62 4.29,-1.84 1.84,-0.62 3.07,-2.46 4.29,-4.91l0 -1.84 1.84 0c0,2.45 -0.61,6.13 -1.84,12.27l0 7.36c0,2.45 0,5.52 0,9.2 0,3.07 1.23,6.13 3.68,8.59 1.23,1.22 2.46,1.84 3.68,1.84 1.23,0 1.85,-0.62 1.85,-1.84 0,-1.23 -0.62,-3.07 -1.85,-5.52l0 -4.91c0,-2.45 0,-4.91 0.62,-7.36 0.61,-2.46 2.45,-4.3 4.91,-5.52 1.22,-1.23 3.06,-1.84 5.52,-1.84 3.06,0 7.97,1.84 13.49,4.9 4.91,2.46 14.72,11.66 27.6,25.77 11.05,11.04 17.79,18.4 21.47,23.31 2.46,2.45 3.68,4.29 3.68,5.52l-3.68 -1.84 -9.2 -7.36 -1.22 0c0,1.22 1.84,4.29 6.74,9.2 2.46,3.68 5.52,6.13 7.98,7.97 3.06,1.84 5.52,3.07 6.74,3.07l1.84 0c2.46,0 5.52,1.22 9.82,4.29 4.29,3.07 9.2,7.36 15.33,13.5 5.52,6.13 11.66,11.04 16.57,15.33 5.52,4.3 9.2,6.14 10.42,6.14 1.23,0 1.84,-3.07 2.46,-9.82 0.61,-6.75 0.61,-19.63 0.61,-38.64 0,-17.79 0,-43.55 -0.61,-77.29 -0.62,-33.74 -1.23,-76.68 -2.46,-129.43 -1.22,-52.75 -2.45,-116.54 -3.68,-192.61 -4.9,-176.04 -16.56,-322.03 -34.35,-437.96 -2.45,-13.5 -5.52,-33.13 -9.2,-59.5 -3.07,-26.38 -6.13,-53.37 -8.59,-80.97 -3.68,-27.61 -7.97,-56.44 -12.88,-86.49 -4.9,-29.45 -9.2,-53.98 -14.11,-73.61 -3.68,-17.79 -8.58,-42.32 -14.72,-74.22 -5.52,-31.9 -11.04,-62.57 -15.95,-92.62 -4.9,-30.06 -11.04,-66.25 -19.01,-109.8 -7.36,-42.94 -15.95,-84.04 -23.92,-122.68 -8.59,-39.26 -15.34,-66.86 -19.63,-84.04 -2.46,-5.52 -6.14,-8.59 -11.04,-8.59l-3.68 0c-3.68,1.23 -9.21,1.84 -15.95,1.84 -7.36,0 -19.02,-1.22 -34.35,-3.06 -15.34,-1.84 -34.97,-5.52 -58.28,-11.66 -23.31,-6.13 -42.93,-12.27 -58.27,-19.63 -47.84,-22.69 -85.26,-52.14 -111.64,-88.33 -16.56,-22.69 -25.15,-41.71 -25.15,-57.04 0,-9.82 3.07,-18.4 9.2,-25.15 4.3,-3.68 13.5,-7.98 25.77,-12.88 12.88,-4.91 26.99,-9.2 42.32,-12.27 19.02,-4.91 40.49,-11.04 64.41,-18.4 23.92,-6.75 46,-14.11 65.02,-21.47 19.01,-7.36 31.28,-12.27 35.58,-15.95l0 -3.68c0,-4.91 -1.23,-15.34 -4.3,-30.67 -3.06,-15.34 -7.97,-36.81 -15.33,-62.57 -17.79,-62.56 -29.45,-108.57 -33.74,-138.63 -2.45,-15.33 -3.68,-28.83 -3.68,-39.87 0,-10.43 1.23,-19.63 3.68,-26.37 1.84,-7.36 4.91,-13.5 8.59,-19.02 3.68,-5.52 7.36,-8.59 11.04,-9.81 3.68,-1.23 6.13,-3.07 7.36,-5.52 0.61,-1.23 1.23,-2.46 1.23,-3.68 0,-1.23 -0.62,-2.46 -1.23,-3.68l0 -1.85c0,-1.22 0,-2.45 0,-3.68 0,-1.22 0.61,-1.84 1.23,-1.84 2.45,0 4.9,1.84 6.74,5.52 1.84,3.69 3.07,7.98 4.3,12.89l3.68 15.94 1.84 -15.94 0 -3.68c0,-9.82 6.13,-14.73 17.79,-14.73 4.9,0 9.81,-0.61 14.72,-2.45 4.29,-1.84 7.97,-3.68 10.43,-6.13 3.68,-3.68 6.74,-5.52 9.2,-5.52 2.45,0 4.29,1.22 5.52,3.68 1.84,3.68 6.13,6.13 12.27,7.36l7.36 0c2.45,0 4.9,0 7.97,0 3.07,0 4.29,-1.84 4.29,-5.52 0,-1.23 0.62,-1.84 1.84,-1.84 2.46,0 5.53,1.22 9.21,3.68 2.45,2.45 6.13,4.29 10.42,4.9l12.89 0c2.45,-0.61 4.9,-1.22 7.36,-1.22 3.68,0 7.36,0.61 12.26,1.84 4.91,1.22 10.43,2.45 16.57,4.9 5.52,3.69 11.04,6.14 15.94,7.37l10.43 0 1.84 -1.84c1.23,0 3.07,1.22 4.91,3.06 1.84,1.23 3.07,3.68 4.29,6.14 1.23,3.68 3.07,6.74 5.52,8.58 2.46,2.46 4.91,3.68 7.36,3.68 3.07,0 7.37,1.84 12.27,4.91 4.91,2.46 9.82,6.14 14.72,9.82 4.3,4.9 9.82,7.97 14.73,10.42 5.52,2.46 9.81,3.68 11.65,3.68 2.45,0 6.13,2.46 11.04,6.14 4.91,4.29 9.2,9.81 12.88,15.33 6.75,8.59 11.04,13.5 12.27,14.72l0 -1.84c0,-1.22 -0.61,-4.29 -1.84,-9.2l0 -17.79c1.23,0 5.52,3.69 13.5,10.43 7.97,7.36 17.17,16.56 27.6,26.99 11.04,11.04 20.24,20.24 28.21,26.99 7.98,7.36 12.27,11.04 13.5,11.04 1.23,0 12.27,-4.9 33.12,-15.33 20.86,-10.43 46.62,-22.7 76.68,-36.81 60.72,-30.05 114.09,-51.52 158.87,-65.02 44.78,-12.88 94.46,-20.24 148.44,-21.47 16.56,-1.22 31.29,-1.84 44.78,-1.84 14.11,0 30.06,0.62 46.62,1.84 16.56,1.23 43.55,6.14 80.97,14.73 26.37,5.52 51.52,11.65 75.45,17.17 23.92,4.91 40.48,9.82 50.29,13.5 16.57,5.52 38.03,14.72 63.8,27.6 25.76,12.27 49.68,25.15 71.77,38.64 22.08,12.88 36.8,22.7 44.16,28.83 6.13,4.91 16.56,13.5 31.28,25.77 15.34,12.88 31.29,25.76 49.69,38.64 145.99,105.51 230.02,254.56 251.49,447.78 6.14,45.39 9.2,95.69 9.2,150.9 0,55.2 -4.29,130.65 -12.88,226.96 -8.58,96.91 -25.15,179.72 -50.3,249.04 -22.69,51.52 -58.27,106.12 -106.73,162.55 -48.46,57.04 -95.07,99.37 -139.24,126.97 -23.92,14.11 -36.19,24.54 -36.19,30.67l0 1.84c2.45,2.46 12.88,15.34 31.28,38.65 19.02,23.31 41.1,50.91 67.48,83.42 56.43,66.86 126.36,142.31 209.17,226.34 83.42,84.04 153.96,148.45 211.62,193.84 17.79,14.72 37.42,30.05 58.27,47.23 20.86,16.56 38.03,29.44 50.91,39.26 13.5,11.04 28.83,22.08 46.01,33.12 17.18,11.66 33.12,20.86 47.85,28.22 19.01,9.2 33.12,17.17 42.32,23.92 8.59,6.75 14.72,13.49 17.79,20.86 3.07,7.36 4.29,16.56 4.29,28.83zm-1987.41 -2329.08c1.22,-2.46 1.84,-5.53 1.84,-9.21 0,-3.68 -0.62,-6.13 -1.84,-8.58l-1.84 -1.84c-1.23,0 -1.84,3.68 -1.84,10.42 0,7.37 0.61,11.05 1.84,11.05l1.84 -1.84zm999.22 1264.83c2.46,0 7.98,-3.68 17.18,-11.66 8.59,-7.36 17.79,-17.17 27.6,-29.44 63.8,-69.32 108.57,-152.74 134.95,-250.88 26.38,-97.53 39.26,-229.41 39.26,-396.26l0 -15.95c0,-150.89 -17.18,-239.22 -52.14,-264.37 -15.34,-11.66 -40.48,-25.77 -75.45,-41.1 -34.35,-15.34 -65.63,-27.6 -93.24,-36.19 -21.46,-5.52 -40.48,-9.2 -57.66,-10.43 -7.97,-1.23 -17.78,-1.84 -28.82,-1.84 -9.21,0 -20.25,0.61 -31.9,1.84 -22.7,1.23 -44.78,4.91 -65.02,10.43 -20.24,6.13 -46.01,16.56 -76.06,31.9 -30.67,14.72 -73,36.8 -126.98,65.63 -56.43,29.44 -99.37,53.37 -129.42,70.54 -30.06,17.79 -50.3,30.06 -61.96,38.03 -11.04,7.36 -17.17,13.5 -17.17,17.18 0,2.45 1.22,8.58 3.06,19.63 1.84,10.42 4.3,23.3 7.98,37.41 7.97,47.23 19.63,132.5 33.12,256.4 13.5,123.91 25.15,241.07 33.12,351.48 2.46,14.11 5.53,34.35 9.82,60.12 4.29,25.76 8.59,49.07 12.88,70.54 4.29,22.08 7.36,33.73 9.82,36.19 6.13,4.9 19.01,9.2 38.64,13.49 19.63,4.3 41.71,7.98 65.63,11.04 23.93,2.46 44.78,4.3 62.57,4.3l9.2 0c12.27,0 17.79,-1.84 17.79,-5.52 0,-1.23 -5.52,-14.73 -16.56,-41.1 -11.66,-26.38 -25.15,-58.89 -40.49,-96.92 -17.17,-38.64 -32.51,-74.83 -46,-109.18 -14.11,-33.74 -22.7,-58.28 -26.38,-72.39l-12.27 -48.45 25.15 -22.09c6.14,-6.74 10.43,-11.65 14.11,-14.1l3.68 -1.84 0 5.52c0,2.45 2.46,3.68 7.36,3.68l3.68 0c3.68,0 6.75,-1.23 9.82,-3.68 3.06,-2.46 4.29,-4.91 4.29,-7.36 0,-3.69 1.23,-5.53 3.68,-5.53 2.46,0 7.98,1.84 15.95,5.53 6.13,2.45 10.43,3.68 12.88,3.68 1.23,0 3.07,0 5.52,0 2.46,0 4.91,-1.84 6.75,-5.52 2.45,-3.69 4.29,-5.53 5.52,-5.53 1.23,0 3.07,0 4.91,0 1.84,0 5.52,3.68 11.65,11.05 7.98,8.58 14.11,13.49 17.79,15.94l3.68 0c0,-1.22 -1.23,-3.68 -3.68,-6.74 -1.23,-2.46 -1.84,-4.3 -1.84,-5.52 0,-2.46 1.23,-4.3 3.68,-5.52 2.45,-1.23 4.91,-1.84 7.36,-1.84 2.46,0 6.14,0.61 11.66,1.84 4.9,1.22 10.42,4.9 15.33,11.04 5.52,3.06 11.66,6.74 16.56,9.81 5.52,3.07 9.2,4.29 11.66,4.29 3.68,0 7.36,1.23 10.43,2.46 2.45,1.84 6.13,5.52 9.81,10.43 3.07,4.29 8.59,12.88 15.33,23.92 6.14,11.65 14.73,26.99 25.77,46.62 11.04,19.63 23.92,45.39 39.26,76.67 37.41,71.77 64.4,121.46 80.96,147.83 17.18,26.99 28.83,40.49 36.19,40.49z"/>
  <path id="_5" class="fil0" d="M13981.9 5612.79c0,-6.13 -3.68,-11.04 -9.81,-13.49 -6.75,-3.07 -12.27,-4.91 -17.18,-4.91 -4.91,0 -10.43,1.23 -16.56,3.68l-10.43 0c-3.68,0 -6.75,-1.23 -9.2,-3.68 -1.23,-2.45 -3.07,-3.68 -4.91,-3.68 -3.68,0 -7.97,1.84 -12.88,5.52 -4.91,3.68 -9.81,5.52 -14.11,5.52 -4.9,0 -11.65,-1.84 -20.24,-5.52 -4.91,-2.45 -9.2,-4.29 -13.49,-5.52 -3.68,-1.23 -6.75,-1.84 -7.98,-1.84 -2.45,0 -4.29,0.61 -5.52,1.84l-3.07 0c-1.22,0 -3.68,-0.61 -7.36,-1.84 -6.13,-3.07 -12.88,-7.98 -19.63,-14.11 -8.58,-7.36 -13.49,-11.04 -14.72,-11.04l1.84 3.68c3.68,4.91 5.52,7.97 5.52,9.2l-1.84 0c-2.45,0 -7.36,-1.23 -14.72,-3.68 -25.76,-10.43 -46,-31.9 -58.88,-62.57 -4.91,-8.58 -7.37,-23.92 -7.37,-46 0,-22.08 0,-46.01 0,-71.16l0 -89.55c0,-51.53 0,-101.83 -0.61,-150.29 -0.61,-48.45 -1.84,-84.03 -3.07,-106.73 -2.45,-22.69 -4.9,-55.2 -6.74,-97.53 -2.46,-41.71 -4.91,-83.42 -7.36,-125.74 -14.73,-241.68 -50.3,-580.28 -107.96,-1015.18 -3.68,-22.7 -6.75,-44.78 -9.2,-66.25 -2.46,-21.47 -3.68,-38.03 -4.91,-48.46 -4.91,-42.32 -21.47,-165.62 -48.46,-370.49 -8.59,-57.66 -14.11,-99.99 -16.56,-127.59 -2.45,-27.6 -3.68,-48.46 -3.68,-62.56l0 -12.89c0,-14.1 2.45,-25.76 7.36,-34.35 4.91,-10.42 9.2,-18.4 13.49,-23.31 4.3,-4.29 10.43,-7.97 19.02,-10.42 7.97,-2.46 20.24,-4.3 35.58,-5.52 7.36,-1.23 14.11,-1.84 20.24,-1.84 12.88,0 19.63,2.45 19.63,7.36 0,2.45 0.61,3.68 1.84,3.68 1.22,0 2.45,-0.62 3.68,-1.84 1.84,-1.23 4.91,-3.68 8.59,-7.36l11.04 -11.05 3.68 -1.84c1.22,0 1.84,0.62 1.84,1.84 0.61,2.46 3.68,4.91 8.59,7.37 4.9,2.45 9.2,3.68 13.49,4.29 4.29,0.61 7.36,1.23 9.81,1.23l5.53 0c4.9,0 7.36,-1.23 7.36,-3.68 0,-4.91 2.45,-7.37 6.74,-7.37 4.91,0 10.43,3.07 16.57,9.21 7.36,7.36 17.78,13.49 32.51,19.62 14.1,6.14 26.37,9.21 35.57,9.21 4.91,0 10.43,1.22 17.18,4.29 6.75,3.07 11.65,6.13 15.33,9.81 4.91,4.91 8.59,7.98 11.66,9.2 3.06,1.23 5.52,1.84 7.97,1.84l3.68 0c1.23,-1.22 2.46,-1.84 3.68,-1.84 1.23,0 1.84,0.62 1.84,1.84 1.23,1.23 1.84,3.69 1.84,7.37 0,3.06 3.07,7.36 8.59,12.26 6.13,4.91 12.27,8.59 19.02,11.04 6.74,2.46 11.65,3.69 15.33,3.69l3.68 0c2.45,0 3.68,0.61 3.68,1.22 0,1.23 -0.61,2.46 -1.84,3.68l0 1.84c0,2.46 1.23,4.91 3.68,7.36 2.46,2.46 6.14,4.3 10.43,6.14 4.91,1.84 9.81,3.06 14.72,3.06l1.84 0c1.23,0 2.46,1.23 3.07,3.07 2.45,3.68 4.91,7.98 7.36,12.88 1.23,6.14 3.68,11.04 7.36,14.11 3.68,3.68 7.36,5.52 11.04,5.52 3.07,0 6.14,1.23 7.98,3.07 1.84,1.84 2.45,3.68 2.45,6.13 0,3.68 1.23,7.36 3.68,10.43 2.45,3.68 5.52,6.75 9.2,9.2 21.47,16.56 41.71,74.22 60.73,172.37 13.49,63.79 23.31,133.1 30.05,208.55 6.14,75.45 12.27,189.54 16.57,341.67 3.68,139.85 6.13,237.38 6.74,291.98 0.62,54.59 0.62,95.07 0.62,121.45 0,53.98 -0.62,106.12 -1.84,157.64 -2.46,79.13 -7.36,184.02 -14.11,314.68 -2.46,41.71 -4.91,83.42 -7.36,125.13 -2.46,41.1 -4.91,72.38 -7.36,94.46 -1.23,20.25 -1.84,38.03 -2.46,52.76 -0.61,14.72 -1.22,23.31 -1.22,24.53 1.22,0 3.68,-1.22 6.74,-3.07 3.07,-1.84 6.14,-4.9 9.82,-9.81 6.13,-6.13 12.27,-12.27 19.63,-19.01 7.36,-6.14 14.1,-12.27 19.63,-17.18 6.13,-4.29 10.42,-7.36 12.88,-8.59l3.68 -1.84 -1.84 3.68c-4.91,5.52 -7.36,9.2 -7.36,10.43 1.22,0 4.9,-3.07 11.04,-8.59 4.29,-3.68 8.58,-6.13 11.65,-7.36 3.07,-1.22 4.91,-1.84 6.14,-1.84 1.22,0 2.45,0.62 3.68,1.84l1.84 0 0 -12.88c-1.23,-3.07 -1.84,-5.52 -1.84,-6.75 0,-2.45 1.22,-3.68 3.68,-3.68l3.06 1.84c4.91,2.46 9.2,3.68 12.27,4.3 2.46,0.61 4.91,1.22 6.14,1.22l3.68 0c1.22,0 1.84,-0.61 1.84,-1.84l0 -3.68c-1.23,-3.68 -1.84,-6.74 -1.84,-9.2 0,-2.45 0.61,-4.29 1.84,-5.52 1.84,-1.23 4.29,-1.84 6.74,-1.84 3.68,0 7.36,1.23 11.04,3.68l7.37 7.36c0,-2.45 -2.46,-6.13 -7.37,-11.04 -4.9,-5.52 -8.58,-8.59 -11.04,-8.59 -2.45,0 -6.74,4.3 -12.26,12.27l-7.37 7.36 -3.68 1.84 -1.84 0c0,-3.68 2.46,-7.97 6.14,-12.88 4.29,-4.29 9.81,-9.2 16.56,-13.49 6.75,-3.68 11.65,-6.14 15.34,-6.14 7.97,0 14.72,3.07 18.4,9.2 4.29,6.14 6.74,10.43 6.74,14.11 0,3.68 -0.61,6.75 -1.84,9.2 -1.22,2.46 -3.06,6.14 -4.29,10.43 -1.84,4.91 -3.07,9.2 -3.07,12.88 -1.22,4.91 -3.06,12.88 -6.13,24.54 -3.07,11.04 -6.75,22.69 -11.66,34.96 -14.72,44.17 -26.98,84.65 -36.8,122.07 -10.43,36.8 -22.69,85.26 -36.8,143.53 -17.18,69.93 -31.29,120.84 -42.33,152.74 -11.65,32.51 -23.92,53.98 -36.8,65.02 -7.36,6.75 -12.27,10.43 -14.72,10.43l-4.91 1.84c-3.68,0 -8.59,-1.84 -14.72,-4.91 -6.14,-3.68 -9.82,-5.52 -12.27,-5.52 -2.45,0 -4.29,1.84 -5.52,5.52 -1.23,4.3 -3.68,7.36 -6.13,7.98 -3.07,0.61 -6.14,0.61 -8.59,0.61l-4.91 0c-3.68,-2.45 -5.52,-5.52 -5.52,-8.59l0 -1.84z"/>
  <path id="_6" class="fil0" d="M14565.86 5612.79c-4.91,-3.68 -9.21,-6.75 -12.89,-8.59 -3.68,-1.84 -6.13,-2.45 -7.36,-2.45 -1.84,0 -3.68,0.61 -4.9,1.84l-1.84 0c-2.46,0 -4.3,-0.61 -5.52,-1.84 -2.46,-2.45 -4.3,-5.52 -5.52,-9.2 -1.23,-4.29 -3.69,-8.59 -7.98,-12.27 -4.29,-3.68 -8.59,-6.13 -13.49,-7.36 -12.27,-4.91 -17.79,-11.04 -17.79,-19.63 0,-6.13 -2.46,-9.2 -7.36,-9.2l-5.52 0c-2.46,0 -4.3,-0.61 -5.52,-1.84 -3.07,-1.23 -5.53,-3.68 -6.75,-6.75 -1.23,-4.9 -5.52,-12.88 -12.88,-23.31 -7.36,-11.04 -14.72,-23.31 -23.31,-36.19 -9.82,-13.49 -17.79,-25.76 -25.15,-38.03 -7.36,-11.65 -11.04,-20.24 -11.04,-25.15 -0.62,-4.29 -2.46,-8.58 -4.91,-11.65 -2.45,-3.07 -4.91,-4.3 -7.36,-4.3l-3.68 0c-2.46,0 -3.68,-1.84 -3.68,-5.52 0,-2.45 0.61,-6.13 1.84,-10.42 1.23,-3.68 1.84,-7.36 1.84,-11.05 0,-4.9 -1.84,-7.36 -5.52,-7.36 -3.68,0 -4.91,-6.74 -4.91,-21.46 0,-6.14 0.61,-14.11 1.84,-25.15l3.07 -46.62 80.97 -80.97c69.31,-69.32 126.97,-130.04 171.75,-182.18 44.78,-52.14 109.18,-131.88 193.22,-238 27.6,-34.96 62.57,-80.36 104.89,-136.18 42.94,-55.2 82.81,-108.57 120.84,-158.87 37.42,-50.29 62.57,-84.03 74.22,-100.59 4.91,-7.36 18.4,-26.99 40.49,-59.5 22.08,-31.9 47.84,-68.7 76.67,-109.19 29.44,-43.55 62.57,-92.01 97.53,-145.99 35.58,-53.98 65.64,-100.6 90.79,-139.85 25.14,-39.87 50.29,-79.13 74.83,-117.78 24.54,-39.25 43.55,-69.31 56.43,-90.78 13.5,-19.01 26.38,-39.26 39.87,-60.11 12.89,-20.86 23.93,-37.42 31.9,-49.69 7.36,-12.88 18.4,-31.89 33.12,-57.04 15.34,-25.15 30.06,-50.92 44.17,-77.29 15.95,-26.38 30.06,-50.91 42.32,-74.22 12.89,-22.7 22.09,-38.03 27.61,-46.62 3.68,-7.98 6.74,-14.72 8.58,-18.4 1.84,-4.3 2.46,-7.36 2.46,-8.59 0,-1.23 -0.62,-1.84 -1.84,-1.84 -2.46,0 -11.66,2.45 -27.61,7.36 -16.56,4.91 -34.96,11.65 -57.04,19.63 -61.95,20.85 -141.08,40.48 -236.77,59.5 -95.69,19.01 -176.66,31.28 -242.91,36.19 -38.03,2.45 -69.31,4.29 -93.24,6.13 -23.92,1.84 -42.93,3.07 -56.43,4.3 -14.11,1.22 -23.92,2.45 -28.83,3.06 -5.52,0.62 -8.59,1.23 -9.81,2.46 -4.91,2.45 -23.31,4.29 -55.21,5.52 -31.9,1.22 -63.18,1.84 -95.08,1.84 -31.89,0 -57.66,0 -77.9,0l-57.66 0c-37.42,0 -63.79,-1.23 -79.13,-3.68 -79.13,-11.04 -134.94,-37.42 -167.46,-79.13 -6.74,-9.82 -12.88,-18.4 -16.56,-26.38 -4.29,-7.36 -6.74,-12.88 -6.74,-14.72 0,-2.45 0,-4.91 -0.62,-7.36 -0.61,-2.45 -2.45,-4.29 -4.29,-5.52 -3.68,-3.68 -9.2,-11.66 -16.56,-24.54 -7.36,-12.26 -13.5,-25.76 -19.63,-39.87 -6.14,-14.72 -9.2,-24.53 -9.2,-30.67 0,-4.9 -0.62,-9.2 -2.46,-12.88 -1.84,-3.68 -3.68,-5.52 -6.13,-5.52 -2.45,0 -3.68,-0.61 -3.68,-1.23 0,-1.22 1.84,-3.06 5.52,-5.52 3.07,-2.45 5.52,-4.9 6.13,-6.13 0.62,-1.84 -1.22,-4.29 -4.29,-6.75 -3.68,-2.45 -5.52,-4.91 -5.52,-6.75 0,-2.45 0,-4.29 0,-5.52l0 -5.52 1.84 -5.52 -1.84 -5.52c0,-2.45 -1.23,-3.68 -3.68,-4.91 -2.45,-2.45 -4.3,-5.52 -5.52,-8.58 -1.23,-2.46 -1.84,-5.52 -1.84,-7.98 0,-3.68 0.61,-6.13 1.84,-6.74l1.84 -1.84 3.68 1.84 1.84 0c0,-2.46 -1.23,-7.37 -3.68,-14.73 -3.68,-6.13 -5.52,-11.65 -5.52,-15.94 0,-4.91 2.45,-12.27 6.13,-21.47 4.3,-9.82 11.66,-25.15 22.7,-47.24 3.68,-6.74 7.97,-13.49 13.49,-18.4 5.52,-5.52 10.43,-9.2 15.34,-9.81 6.13,-1.23 17.17,-1.84 34.35,-1.23 16.56,0.61 33.73,1.23 52.14,2.45 17.79,1.23 32.51,3.07 44.78,5.53 6.13,2.45 19.01,5.52 38.64,7.97 19.63,3.07 40.48,6.13 62.57,9.2 22.08,3.07 39.87,5.52 53.36,7.97 6.75,1.23 28.22,3.07 62.57,5.53 34.96,2.45 74.22,5.52 119,9.2 45.39,2.45 88.94,4.9 130.04,8.58 41.1,3.68 70.54,6.75 87.1,9.21 71.77,8.58 160.1,14.72 264.38,19.62 104.28,4.91 184.63,7.36 240.45,7.36l38.03 0c56.43,-2.45 99.99,-4.29 131.88,-6.13 31.9,-1.84 55.21,-4.29 69.93,-6.75 15.33,-2.45 25.76,-4.9 32.51,-8.58 6.75,-3.68 12.27,-9.21 17.17,-16.57 15.34,-15.33 30.67,-23.92 44.78,-25.15 12.27,0 20.25,1.84 24.54,5.53 4.29,3.68 6.13,6.13 6.13,7.36 0,3.68 -2.45,7.36 -7.36,10.42l0 1.84 5.52 0c3.68,0 8.59,-0.61 14.72,-1.84 5.53,-0.61 10.43,-1.22 14.11,-1.22 3.68,0 6.14,0.61 7.36,1.22 3.68,0 5.52,2.46 5.52,7.36 0,2.46 1.23,6.75 4.3,12.89 3.06,5.52 6.75,11.65 11.65,17.78 4.91,4.91 7.98,8.59 9.2,11.66 0.62,3.07 1.23,4.91 1.23,6.13 0,1.23 0,1.84 -1.23,1.84l0 1.84c0,2.46 1.23,4.91 3.07,7.36 2.45,2.46 4.91,5.52 6.75,9.82 1.84,4.29 2.45,7.97 2.45,11.65 0,3.68 0.61,7.36 2.46,11.04 1.84,3.07 4.29,5.53 6.74,6.75l3.68 1.84c0.62,0 1.23,-0.61 1.23,-1.84l-1.23 -3.68c-1.22,-1.23 -1.84,-1.84 -1.84,-3.07l0 -1.84c0,-2.45 1.23,-3.68 3.07,-3.68 3.68,0 6.75,5.52 8.59,17.18 1.84,11.04 2.45,22.08 2.45,33.12 0,9.2 -0.61,20.24 -1.84,32.51 -1.23,19.02 -9.81,49.07 -25.15,90.79 -15.33,41.09 -42.94,104.27 -82.81,189.54 -22.69,47.84 -43.55,94.46 -63.79,139.85 -19.63,45.39 -34.35,79.13 -43.55,100.6 -25.15,57.66 -60.73,132.49 -106.12,223.89 -46.01,91.4 -84.65,165.62 -117.16,222.05 -3.68,6.75 -9.2,18.4 -17.79,33.12 -8.59,14.73 -17.17,30.67 -26.99,47.85 -92.01,173.59 -175.43,313.45 -249.65,420.18 -66.25,95.69 -125.75,182.18 -179.12,258.24 -53.36,76.06 -90.78,127.59 -112.25,155.19 -2.45,4.91 -5.52,9.2 -8.58,12.27 -15.95,22.08 -26.38,36.8 -31.9,44.16 -5.52,7.98 -7.98,12.88 -7.98,15.34 0,1.23 0.62,1.84 1.84,1.84l19.63 0c1.23,-1.23 3.07,-1.84 5.52,-1.84 123.3,-17.79 257.02,-26.99 400.55,-26.99 145.38,0 273.58,9.2 384.61,26.99 39.87,7.36 72.38,15.95 98.14,26.37 25.76,9.82 38.64,19.63 38.64,29.45 0,2.45 0.62,4.91 2.46,7.97 1.84,3.07 3.68,4.3 4.9,4.3 4.3,1.22 8.59,5.52 12.27,12.26 3.68,6.14 6.14,12.27 7.98,17.79 1.84,5.52 3.06,9.2 3.06,11.66 0,2.45 -0.61,4.29 -1.84,5.52l-1.84 3.68c0,0.61 0.62,1.22 1.84,1.22 1.23,0 2.46,-0.61 3.68,-1.22 2.46,-1.23 4.3,-1.84 6.14,-1.23 1.84,0.61 2.45,1.84 2.45,4.3 0,1.22 -0.61,3.06 -2.45,4.9 -1.84,1.84 -3.68,2.46 -6.14,2.46 -2.45,0 -3.68,0.61 -3.68,1.84 0,1.22 2.46,3.06 7.36,5.52 5.53,3.68 8.59,9.81 8.59,19.63l0 9.2c-1.22,5.52 -2.45,16.56 -3.68,31.28 -1.23,14.72 -2.45,30.67 -3.07,47.85 -1.22,16.56 -2.45,33.12 -3.06,49.07 -0.62,16.56 -1.23,28.83 -2.46,36.8 0,8.59 0,15.34 0.62,20.86 0.61,5.52 1.84,8.58 3.06,9.81 1.84,1.23 3.07,3.07 3.07,5.52l0 3.68c-0.61,3.68 -3.07,7.98 -6.13,13.5 -3.07,4.9 -6.14,9.81 -9.82,13.49 -3.68,3.07 -7.36,4.91 -11.04,4.91l-1.22 0c-3.69,0 -6.75,1.23 -9.21,3.68 -3.68,2.45 -6.74,6.13 -9.2,11.04 -1.22,3.68 -3.06,6.75 -5.52,8.59 -1.84,2.45 -6.13,3.68 -12.27,3.68 -4.9,0 -13.49,-1.84 -25.14,-4.91 -12.27,-3.68 -28.22,-8.59 -48.46,-14.72 -13.5,-3.68 -25.15,-6.75 -36.19,-8.59 -10.43,-2.45 -23.93,-4.91 -40.49,-6.75 -15.95,-1.84 -39.87,-4.29 -70.54,-7.97 -31.28,-3.68 -72.99,-7.97 -125.75,-12.88 -37.41,-3.07 -85.87,-5.52 -145.99,-6.13 -59.5,-0.62 -109.79,-0.62 -150.89,-0.62l-120.23 1.84c-79.13,0 -136.17,1.84 -170.52,4.91 -52.76,6.13 -113.48,14.11 -181.57,23.92 -68.7,9.2 -121.45,17.79 -158.26,25.15 -39.87,7.98 -64.4,12.27 -73.61,12.27 -9.81,0 -15.94,0 -18.4,0 -14.11,0 -25.15,-3.68 -31.89,-10.43z"/>
 </g>
</svg>
